<svg width="716" height="284" viewBox="0 0 716 284" fill="none" xmlns="http://www.w3.org/2000/svg">
<path fill-rule="evenodd" clip-rule="evenodd" d="M30.3339 62.4837C29.8869 58.3689 32.0591 57.9172 33.2011 58.2056C33.2011 58.2056 52.0917 66.23 89.8159 66.8885C127.54 67.5469 148.301 58.4869 148.301 58.4869C149.444 58.204 151.614 58.6664 151.147 62.7789C150.68 66.8915 149.965 78.7739 149.666 84.201L171.377 84.254C174.044 84.1653 178.973 85.7009 177.356 92.5532C177.027 93.9471 176.545 96.3319 175.925 99.3935C172.738 115.144 165.925 148.809 157.771 157.639C152.041 164.481 144.32 167.891 138.317 169.304C133.317 170.791 128.102 170.53 126.299 170.439L126.299 170.439C126.04 170.426 125.852 170.417 125.745 170.416C121.731 176.406 111.472 189.35 102.549 193.214C99.6405 194.263 99.6637 195.32 99.682 196.151C99.6835 196.219 99.685 196.285 99.6848 196.349C100.142 204.063 102.081 221.323 106.176 228.646C106.72 229.739 106.872 230.571 106.977 231.141C107.092 231.765 107.149 232.077 107.596 232.078L113.024 232.091C113.596 232.092 114.967 232.096 115.878 233.241C116.365 233.853 117.22 233.839 118.149 233.824C119.393 233.803 120.773 233.781 121.587 235.254C122.458 236.832 122.277 238.517 122.184 239.385C122.163 239.574 122.147 239.724 122.147 239.827L130.717 239.848C131.765 239.85 133.858 240.369 133.853 242.426L133.811 259.567C133.811 259.879 133.788 260.134 133.77 260.343C133.688 261.28 133.688 261.28 136.093 261.286L143.52 261.304C143.997 261.306 144.948 261.365 144.942 263.879L144.923 271.592C144.922 272.164 144.919 273.306 142.348 273.3L38.104 273.045C35.5329 273.039 35.5357 271.896 35.5371 271.325L35.556 263.612C35.5621 261.098 36.5138 261.043 36.9906 261.044L44.4181 261.062C46.8229 261.068 46.8229 261.068 46.7453 260.13L46.7453 260.13L46.7453 260.13C46.728 259.921 46.7069 259.666 46.7077 259.354L46.7496 242.213C46.7546 240.157 48.8508 239.648 49.8983 239.65L58.4685 239.671C58.4687 239.569 58.4533 239.419 58.4339 239.229C58.3448 238.361 58.1718 236.675 59.051 235.102C59.8722 233.632 61.2513 233.661 62.4955 233.688C63.425 233.707 64.2792 233.725 64.7693 233.116C65.6863 231.975 67.0575 231.979 67.6289 231.98L73.0567 231.993C73.5042 231.995 73.563 231.683 73.6805 231.06C73.7881 230.49 73.9448 229.659 74.4934 228.569C78.6249 221.266 80.6478 204.016 81.1427 196.304C81.1429 196.24 81.1447 196.174 81.1465 196.107L81.1465 196.106C81.1688 195.275 81.1973 194.218 78.2937 193.154C69.3902 189.247 59.1948 176.253 55.21 170.244C55.1031 170.244 54.9161 170.252 54.6595 170.264L54.6581 170.264L54.6554 170.264L54.6552 170.264C52.8517 170.346 47.6361 170.582 42.6432 169.071C36.6475 167.628 28.9427 164.181 23.246 157.311C15.1355 148.441 8.48736 114.743 5.37695 98.9767C4.77236 95.9121 4.30143 93.5251 3.9794 92.1295C2.39638 85.2695 7.33272 83.7579 9.99878 83.8597L31.7099 83.9127C31.4375 78.4842 30.7809 66.5986 30.3339 62.4837ZM15.8476 93.4105C12.5076 93.3522 13.3007 97.257 13.9042 100.228C13.9825 100.614 14.0576 100.983 14.1201 101.327C14.6639 104.316 17.1903 116.638 23.8372 136.461C30.484 156.285 43.3322 157.727 48.9255 155.971C45.0967 147.693 37.0168 121.196 35.3888 112.029C33.7607 102.862 31.7356 93.6877 29.3524 93.6462L15.8476 93.4105ZM167.242 101.408C167.897 98.4475 168.758 94.5571 165.418 94.5571L151.911 94.5571C149.528 94.5571 147.343 103.694 145.555 112.831C143.767 121.968 135.226 148.32 131.253 156.531C136.815 158.384 149.686 157.166 156.678 137.462C163.67 117.757 166.411 105.482 167.007 102.502C167.076 102.16 167.157 101.792 167.242 101.408L167.242 101.408ZM109.937 132.129L90.4634 144.384L71.0746 131.994L90.4062 160.182L90.4062 160.19L90.4089 160.186L90.4117 160.19L90.4117 160.182L109.937 132.129ZM90.6544 90.6369L90.6544 90.6188L90.6491 90.6278L90.644 90.6189L90.6439 90.6367L70.9767 124.244L90.4858 136.479L90.4857 136.485L90.4911 136.482L90.4962 136.485L90.4962 136.479L110.089 124.38L90.6544 90.6369Z" fill="#FFB636"/>
<path d="M150.342 59.0848C150.294 64.5697 123.755 68.7848 91.0653 68.4995C58.3754 68.2142 31.1194 63.5227 31.1673 58.0378C31.2152 52.553 58.5488 48.3517 91.2387 48.637C123.929 48.9223 150.39 53.5999 150.342 59.0848Z" fill="#FFD469"/>
<path d="M133.184 78.6368C136.105 78.6368 136.626 78.6368 141.923 76.7831C141.266 80.3072 137.812 107.016 136.626 111.208C133.458 122.409 129.879 139.718 125.24 143.064C124.358 143.699 120.473 143.064 119.027 142.132C117.581 141.2 122.592 131.598 128.682 111.208C132.125 89.229 131.066 79.696 133.184 78.6368Z" fill="#FFCC4E"/>
<path d="M291.226 50.5033C327.31 50.5033 356.562 80.2436 356.562 116.93V155.126C356.562 191.812 327.31 221.552 291.226 221.552C285.558 221.552 280.059 220.819 274.815 219.439L274.815 223.948C274.815 250.786 253.313 272.593 226.624 273.027L225.813 273.033V126.894L225.888 126.892L225.89 116.93C225.89 80.2436 255.142 50.5033 291.226 50.5033ZM583.816 50.5033C619.921 50.5033 649.19 80.4136 649.19 117.31V155.724C649.19 192.62 619.921 222.53 583.816 222.53C547.711 222.53 518.442 192.62 518.442 155.724V117.31C518.442 80.4136 547.711 50.5033 583.816 50.5033ZM437.502 47.3468C473.607 47.3468 502.876 77.2571 502.876 114.153V152.567C502.876 189.463 473.607 219.374 437.502 219.374C401.397 219.374 372.128 189.463 372.128 152.567V114.153C372.128 77.2571 401.397 47.3468 437.502 47.3468ZM714.565 0V169.48C714.565 196.76 692.708 218.926 665.579 219.367L664.756 219.374V49.8933C664.756 22.338 687.056 0 714.565 0ZM583.816 100.608C574.79 100.608 567.472 108.086 567.472 117.31V155.724C567.472 164.948 574.79 172.425 583.816 172.425C592.842 172.425 600.16 164.948 600.16 155.724V117.31C600.16 108.086 592.842 100.608 583.816 100.608ZM291.226 100.323C282.205 100.323 274.892 107.758 274.892 116.93V155.126C274.892 164.297 282.205 171.732 291.226 171.732C300.247 171.732 307.56 164.297 307.56 155.126V116.93C307.56 107.758 300.247 100.323 291.226 100.323ZM437.502 97.4517C428.476 97.4517 421.158 104.929 421.158 114.153V152.567C421.158 161.791 428.476 169.269 437.502 169.269C446.528 169.269 453.845 161.791 453.845 152.567V114.153C453.845 104.929 446.528 97.4517 437.502 97.4517Z" fill="white"/>
<path d="M509.82 268.293H508.302C506.794 268.293 505.469 266.871 505.469 264.656V254.192H508.704C510.21 254.192 511.359 253.188 511.359 251.76C511.359 251.038 511.092 250.396 510.603 249.937C510.117 249.48 509.449 249.239 508.704 249.239H505.469V243.371C505.469 241.769 504.282 240.582 502.68 240.582C501.078 240.582 499.891 241.769 499.891 243.371V249.239H498.396C497.651 249.239 496.983 249.48 496.497 249.937C496.008 250.396 495.741 251.038 495.741 251.76C495.741 253.188 496.89 254.192 498.396 254.192H499.891V264.656C499.891 269.866 503.484 273.871 508.302 273.871H509.106C510.839 273.871 512.296 272.768 512.296 271.082C512.296 269.553 511.267 268.293 509.82 268.293Z" fill="white"/>
<path fill-rule="evenodd" clip-rule="evenodd" d="M543.459 261.131L543.459 261.127C543.413 253.556 538.085 248.168 530.63 248.168C526.88 248.168 523.654 249.501 521.365 251.808C519.077 254.114 517.756 257.361 517.756 261.131C517.756 264.879 519.078 268.115 521.366 270.415C523.655 272.716 526.88 274.049 530.63 274.049C534.359 274.049 537.573 272.715 539.856 270.415C542.138 268.115 543.459 264.879 543.459 261.131ZM530.63 253.3C532.805 253.3 534.629 254.112 535.913 255.478C537.199 256.846 537.97 258.801 537.97 261.131C537.97 263.46 537.199 265.404 535.914 266.76C534.632 268.115 532.807 268.917 530.63 268.917C528.453 268.917 526.616 268.114 525.322 266.759C524.026 265.401 523.245 263.458 523.245 261.131C523.245 256.502 526.325 253.3 530.63 253.3Z" fill="white"/>
<path fill-rule="evenodd" clip-rule="evenodd" d="M562.883 284C558.494 284 554.489 282.241 551.829 278.883C551.334 278.277 551.149 277.57 551.268 276.892C551.386 276.219 551.795 275.626 552.395 275.217L552.4 275.214C553.736 274.323 555.353 274.724 556.23 275.872C557.717 277.771 559.999 278.868 562.973 278.868C564.974 278.868 566.798 278.13 568.124 276.733C569.448 275.336 570.313 273.239 570.313 270.457V270.103C568.341 272.589 565.472 274.049 562.08 274.049C558.584 274.049 555.578 272.705 553.449 270.4C551.323 268.098 550.099 264.867 550.099 261.131C550.099 257.361 551.42 254.114 553.708 251.808C555.997 249.501 559.222 248.168 562.973 248.168C570.428 248.168 575.755 253.556 575.802 261.127L575.802 261.131L575.802 270.769C575.802 278.101 570.536 284 562.883 284ZM562.973 268.917C560.795 268.917 558.959 268.114 557.664 266.759C556.369 265.401 555.588 263.458 555.588 261.131C555.588 256.502 558.668 253.3 562.973 253.3C565.147 253.3 566.972 254.112 568.256 255.478C569.541 256.846 570.313 258.801 570.313 261.131C570.313 263.46 569.542 265.404 568.257 266.76C566.974 268.115 565.15 268.917 562.973 268.917Z" fill="white"/>
<path fill-rule="evenodd" clip-rule="evenodd" d="M604.059 267.483C603.078 266.675 601.632 266.708 600.56 267.511C599.444 268.337 597.418 269.096 595.717 269.096C591.671 269.096 588.683 266.722 587.832 263.25H604.106C604.834 263.25 605.49 263.006 605.969 262.55C606.45 262.091 606.716 261.451 606.716 260.729C606.716 257.097 605.647 253.953 603.628 251.71C601.603 249.461 598.668 248.168 595.048 248.168C591.382 248.168 588.223 249.504 585.98 251.812C583.738 254.118 582.442 257.364 582.442 261.131C582.442 264.885 583.812 268.123 586.175 270.422C588.537 272.719 591.86 274.049 595.717 274.049C598.553 274.049 602.024 272.898 604.139 271.207C604.75 270.733 605.083 270.08 605.059 269.373C605.036 268.676 604.672 268.015 604.07 267.492L604.059 267.483ZM595.048 253.121C596.921 253.121 598.395 253.752 599.465 254.802C600.414 255.734 601.074 257.023 601.392 258.565H587.88C588.261 257.022 589.012 255.738 590.081 254.808C591.295 253.753 592.956 253.121 595.048 253.121Z" fill="white"/>
<path d="M624.592 268.293H623.075C621.566 268.293 620.241 266.871 620.241 264.656V254.192H623.476C624.983 254.192 626.131 253.188 626.131 251.76C626.131 251.038 625.864 250.396 625.375 249.937C624.889 249.48 624.221 249.239 623.476 249.239H620.241V243.371C620.241 241.769 619.054 240.582 617.452 240.582C615.85 240.582 614.663 241.769 614.663 243.371V249.239H613.168C612.423 249.239 611.756 249.48 611.269 249.937C610.78 250.396 610.513 251.038 610.513 251.76C610.513 253.188 611.662 254.192 613.168 254.192H614.663V264.656C614.663 269.866 618.256 273.871 623.075 273.871H623.878C625.612 273.871 627.068 272.768 627.068 271.082C627.068 269.553 626.039 268.293 624.592 268.293Z" fill="white"/>
<path d="M646.473 248.123C643.779 248.123 641.336 248.966 639.445 250.436V240.738C639.445 239.935 639.162 239.22 638.646 238.704C638.13 238.188 637.415 237.905 636.612 237.905C635.809 237.905 635.093 238.188 634.577 238.704C634.061 239.22 633.778 239.935 633.778 240.738V271.082C633.778 271.885 634.061 272.6 634.577 273.116C635.093 273.632 635.809 273.915 636.612 273.915C637.415 273.915 638.13 273.632 638.646 273.116C639.162 272.6 639.445 271.885 639.445 271.082V258.498C639.445 255.63 642.008 253.344 645.581 253.344C647.511 253.344 649.132 253.884 650.267 254.96C651.397 256.029 652.118 257.698 652.118 260.104V271.082C652.118 272.684 653.349 273.915 654.952 273.915C656.554 273.915 657.785 272.684 657.785 271.082V260.104C657.785 256.282 656.585 253.274 654.538 251.221C652.492 249.17 649.653 248.123 646.473 248.123Z" fill="white"/>
<path fill-rule="evenodd" clip-rule="evenodd" d="M686.884 263.25H670.61C671.462 266.722 674.449 269.096 678.495 269.096C680.197 269.096 682.223 268.336 683.339 267.51C684.41 266.708 685.856 266.675 686.837 267.483L686.849 267.493C687.45 268.015 687.815 268.676 687.838 269.373C687.861 270.081 687.528 270.733 686.917 271.208C684.801 272.898 681.332 274.049 678.495 274.049C674.639 274.049 671.315 272.719 668.953 270.422C666.59 268.123 665.22 264.885 665.22 261.131C665.22 257.364 666.516 254.118 668.758 251.812C671.001 249.504 674.161 248.168 677.826 248.168C681.447 248.168 684.382 249.461 686.406 251.71C688.425 253.953 689.495 257.097 689.495 260.729C689.495 261.451 689.228 262.091 688.747 262.55C688.269 263.006 687.612 263.25 686.884 263.25ZM677.826 253.121C679.699 253.121 681.173 253.752 682.243 254.802C683.193 255.734 683.853 257.023 684.17 258.565H670.658C671.039 257.022 671.791 255.738 672.859 254.808C674.073 253.753 675.734 253.121 677.826 253.121Z" fill="white"/>
<path d="M708.932 248.079C706.273 248.079 703.809 249.05 701.968 250.661C701.898 250.033 701.679 249.486 701.266 249.073C700.753 248.56 700.031 248.346 699.204 248.346C698.388 248.346 697.671 248.578 697.159 249.09C696.647 249.602 696.415 250.319 696.415 251.135V271.082C696.415 271.916 696.645 272.637 697.162 273.147C697.677 273.655 698.396 273.871 699.204 273.871C700.039 273.871 700.76 273.641 701.269 273.124C701.777 272.608 701.993 271.89 701.993 271.082V258.052C701.993 256.232 702.936 254.851 704.565 254.026C706.217 253.19 708.589 252.926 711.36 253.466C712.015 253.616 712.688 253.606 713.267 253.32C713.868 253.024 714.282 252.472 714.471 251.717C714.602 251.193 714.552 250.674 714.322 250.2C714.095 249.733 713.709 249.343 713.216 249.034C712.24 248.421 710.772 248.079 708.932 248.079Z" fill="white"/>
</svg>
