<svg width="318" height="318" viewBox="0 0 318 318" fill="none" xmlns="http://www.w3.org/2000/svg">
<circle cx="159" cy="159" r="159" fill="white"/>
<path d="M161.413 43.5034C197.497 43.5034 226.749 73.2437 226.749 109.93V148.126C226.749 184.812 197.497 214.553 161.413 214.553C155.745 214.553 150.245 213.819 145.001 212.44L145.002 216.949C145.002 243.786 123.5 265.593 96.8104 266.027L96 266.033V119.894L96.0749 119.893L96.0769 109.93C96.0769 73.2437 125.329 43.5034 161.413 43.5034ZM161.413 93.3236C152.392 93.3236 145.079 100.759 145.079 109.93V148.126C145.079 157.297 152.392 164.732 161.413 164.732C170.434 164.732 177.747 157.297 177.747 148.126V109.93C177.747 100.759 170.434 93.3236 161.413 93.3236Z" fill="url(#paint0_linear)"/>
<defs>
<linearGradient id="paint0_linear" x1="161.374" y1="43.5034" x2="161.374" y2="266.033" gradientUnits="userSpaceOnUse">
<stop stop-color="#7E46F2"/>
<stop offset="1" stop-color="#46279A"/>
</linearGradient>
</defs>
</svg>
