<svg xmlns="http://www.w3.org/2000/svg" width="393" height="161" viewBox="0 0 393 161">
  <g fill="#6A7287" fill-rule="evenodd">
    <path d="M61.4295964,0 C95.3562257,0 122.859193,27.783451 122.859193,62.0560748 L122.859193,97.9439252 C122.859193,132.216549 95.3562257,160 61.4295964,160 C27.5029671,160 0,132.216549 0,97.9439252 L0,62.0560748 C0,27.783451 27.5029671,0 61.4295964,0 Z M61.1390689,36.7816092 C46.9691113,36.7816092 35.4820911,48.333569 35.4820911,62.5836336 L35.481511,66.4533849 L35.4519064,66.4539372 L35.4519064,123.218391 L35.9061181,123.213082 C46.3237668,122.969315 54.6946397,114.361895 54.6946397,103.779414 L54.6936844,102.400864 C56.7531769,102.936727 58.9130163,103.221822 61.1390689,103.221822 C75.3090264,103.221822 86.7960466,91.6698621 86.7960466,77.4197976 L86.7960466,62.5836336 C86.7960466,48.333569 75.3090264,36.7816092 61.1390689,36.7816092 Z M61.1390689,56.1331275 C64.6815582,56.1331275 67.5533133,59.0211174 67.5533133,62.5836336 L67.5533133,77.4197976 C67.5533133,80.9823137 64.6815582,83.8703037 61.1390689,83.8703037 C57.5965795,83.8703037 54.7248244,80.9823137 54.7248244,77.4197976 L54.7248244,62.5836336 C54.7248244,59.0211174 57.5965795,56.1331275 61.1390689,56.1331275 Z"/>
    <path fill-rule="nonzero" d="M194.881354 34.0339778C211.747996 34.0339778 225.421111 47.9119102 225.421111 65.0312074L225.421111 82.8546145C225.421111 99.9739117 211.747996 113.851844 194.881354 113.851844 192.23196 113.851844 189.661363 113.509423 187.210178 112.865806L187.210485 114.969879C187.210485 127.493361 177.15972 137.669361 164.684441 137.871629L164.305667 137.874697 164.305667 69.6807919 164.340667 69.6799778 164.341597 65.0312074C164.341597 47.9119102 178.014712 34.0339778 194.881354 34.0339778zM331.645571 34.0339778C348.522135 34.0339778 362.203293 47.9912236 362.203293 65.2083589L362.203293 83.133628C362.203293 100.350763 348.522135 114.308009 331.645571 114.308009 314.769008 114.308009 301.08785 100.350763 301.08785 83.133628L301.08785 65.2083589C301.08785 47.9912236 314.769008 34.0339778 331.645571 34.0339778zM263.25448 32.5610598C280.131044 32.5610598 293.812202 46.5183056 293.812202 63.7354409L293.812202 81.66071C293.812202 98.8778452 280.131044 112.835091 263.25448 112.835091 246.377917 112.835091 232.696759 98.8778452 232.696759 81.66071L232.696759 63.7354409C232.696759 46.5183056 246.377917 32.5610598 263.25448 32.5610598zM392.761014 10.4672897L392.761014 89.5530175C392.761014 102.282768 382.544707 112.626373 369.863952 112.831972L369.478941 112.835091 369.478941 33.7493633C369.478941 20.8910291 379.90268 10.4672897 392.761014 10.4672897zM331.645571 57.4147636C327.42643 57.4147636 324.006141 60.9040751 324.006141 65.2083589L324.006141 83.133628C324.006141 87.4379118 327.42643 90.9272232 331.645571 90.9272232 335.864712 90.9272232 339.285002 87.4379118 339.285002 83.133628L339.285002 65.2083589C339.285002 60.9040751 335.864712 57.4147636 331.645571 57.4147636zM194.881354 57.2819C190.664693 57.2819 187.246414 60.7513831 187.246414 65.0312074L187.246414 82.8546145C187.246414 87.1344388 190.664693 90.6039219 194.881354 90.6039219 199.098014 90.6039219 202.516293 87.1344388 202.516293 82.8546145L202.516293 65.0312074C202.516293 60.7513831 199.098014 57.2819 194.881354 57.2819zM263.25448 55.9418456C259.035339 55.9418456 255.61505 59.431157 255.61505 63.7354409L255.61505 81.66071C255.61505 85.9649938 259.035339 89.4543052 263.25448 89.4543052 267.473621 89.4543052 270.893911 85.9649938 270.893911 81.66071L270.893911 63.7354409C270.893911 59.431157 267.473621 55.9418456 263.25448 55.9418456zM219.214696 151.328425C214.438066 151.328425 211.790152 148.812994 211.790152 143.422785L211.790152 131.204978 210.595994 131.204978C208.830718 131.204978 208 130.280942 208 128.689547L208 128.073523C208 126.584799 208.778798 125.609428 210.544074 125.609428L211.790152 125.609428 211.790152 122.426638C211.790152 120.116548 212.932389 119.089842 214.905345 119.089842L215.632223 119.089842C217.605179 119.089842 218.799337 119.962542 218.799337 122.426638L218.799337 125.609428 222.537569 125.609428C224.250925 125.609428 225.133563 126.430793 225.133563 128.022188L225.133563 128.638212C225.133563 130.332278 224.199005 131.204978 222.537569 131.204978L218.695497 131.204978 218.695497 141.934061C218.695497 144.552162 219.474295 145.476198 221.031892 145.476198 222.226049 145.476198 223.264447 144.860174 223.887486 143.987474 224.147085 143.987474 225.393162 144.911509 225.393162 146.862252 225.393162 147.940294 225.029723 148.915665 224.095165 149.73703 223.056767 150.712401 221.447251 151.328425 219.214696 151.328425zM228.555556 138.407756C228.555556 130.584695 233.269059 125.537558 240.489745 125.537558 247.560001 125.537558 252.273504 130.584695 252.273504 138.508699 252.273504 146.281289 247.560001 151.328425 240.389458 151.328425 233.168772 151.328425 228.555556 146.281289 228.555556 138.407756zM245.948718 137.676372C245.948718 132.889929 243.796534 130.373346 240.465772 130.373346 237.083769 130.373346 234.880342 132.840584 234.880342 137.627027 234.880342 142.364125 237.083769 144.880708 240.465772 144.880708 243.745291 144.880708 245.948718 142.364125 245.948718 137.676372zM265.080222 161C257.462904 161 253.854701 158.559413 253.854701 154.301367 253.854701 151.029942 256.661081 148.641283 260.970879 147.654662 260.269284 147.135388 259.768145 146.30455 259.768145 145.214075 259.768145 143.967818 260.569968 142.825416 261.672475 142.306142 257.563132 141.163739 255.207777 137.996169 255.207777 133.841978 255.207777 128.285748 259.517575 124.339267 265.380906 124.339267 267.034665 124.339267 268.588197 124.702759 269.941274 125.377815L270.993666 123.352647C271.845603 121.379406 272.94811 120.652423 274.251072 120.70435 276.656541 120.756277 277.708933 123.664211 277.558592 123.923848L273.699819 128.078039C275.002781 129.63586 275.75449 131.557173 275.75449 133.790051 275.75449 138.982789 271.995945 142.617706 266.33307 142.773488L265.43102 142.773488C265.230564 143.033125 265.230564 143.448544 265.531247 143.760109 265.882045 144.798656 267.98683 145.006366 271.04378 145.992986 274.10073 147.031534 277.308022 148.90092 277.308022 153.003183 277.308022 157.728575 273.048337 161 265.080222 161zM265.738537 138.432992C268.125249 138.432992 269.666667 136.735322 269.666667 133.54576 269.666667 130.407642 268.125249 128.761417 265.688814 128.761417 263.351825 128.761417 261.760684 130.407642 261.760684 133.54576 261.760684 136.735322 263.351825 138.432992 265.738537 138.432992zM265.583765 157.776142C269.169295 157.776142 271.247863 156.68499 271.247863 154.701077 271.247863 153.26274 269.792865 152.469175 267.766261 151.874001 267.090727 151.67561 266.363228 151.477218 265.635729 151.328425 262.517876 151.774805 260.179487 153.064349 260.179487 154.949066 260.179487 156.734587 262.050199 157.776142 265.583765 157.776142zM279.153846 137.813986C279.153846 129.480972 284.035393 123.925629 291.304652 123.925629 298.520851 123.925629 302.871795 128.946804 302.871795 136.799067L302.871795 137.279818C302.871795 138.615237 302.394252 139.363072 300.961625 139.363072L285.786382 139.363072C285.839442 139.630155 285.839442 140.004073 285.892503 140.271156 286.370045 143.796662 288.757758 145.719666 291.941376 145.719666 295.018872 145.719666 296.822922 144.223996 297.831068 142.033909 298.414731 141.980493 301.757529 142.35441 301.757529 145.238915 301.757529 146.62775 301.014685 148.070003 299.422876 149.245171 297.778007 150.42034 295.178053 151.328425 291.676074 151.328425 284.141513 151.328425 279.153846 146.253833 279.153846 137.813986zM294.965812 135.209133C294.867499 131.241308 293.343652 128.761417 290.443426 128.761417 287.641513 128.761417 285.773571 131.296416 285.478632 135.209133L294.965812 135.209133zM315.667687 151.328425C310.891058 151.328425 308.243143 148.812994 308.243143 143.422785L308.243143 131.204978 307.048986 131.204978C305.28371 131.204978 304.452991 130.280942 304.452991 128.689547L304.452991 128.073523C304.452991 126.584799 305.23179 125.609428 306.997066 125.609428L308.243143 125.609428 308.243143 122.426638C308.243143 120.116548 309.385381 119.089842 311.358337 119.089842L312.085215 119.089842C314.058171 119.089842 315.252328 119.962542 315.252328 122.426638L315.252328 125.609428 318.99056 125.609428C320.703916 125.609428 321.586554 126.430793 321.586554 128.022188L321.586554 128.638212C321.586554 130.332278 320.651996 131.204978 318.99056 131.204978L315.148488 131.204978 315.148488 141.934061C315.148488 144.552162 315.927287 145.476198 317.484883 145.476198 318.679041 145.476198 319.717438 144.860174 320.340477 143.987474 320.600077 143.987474 321.846154 144.911509 321.846154 146.862252 321.846154 147.940294 321.482715 148.915665 320.548157 149.73703 319.509759 150.712401 317.900242 151.328425 315.667687 151.328425zM338.984285 124.856323C344.850014 124.856323 347.145299 129.276427 347.145299 134.763452L347.145299 147.160065C347.145299 149.547938 345.972153 150.462442 344.135925 150.462442L343.319824 150.462442C341.381583 150.462442 340.208437 149.598743 340.208437 147.160065L340.208437 135.322316C340.208437 132.477192 338.933278 130.648183 336.433967 130.648183 333.934657 130.648183 332.149435 132.273969 331.894403 135.017481L331.894403 147.160065C331.894403 149.547938 330.772264 150.462442 328.885029 150.462442L328.119934 150.462442C326.181693 150.462442 325.008547 149.598743 325.008547 147.160065L325.008547 115.863698C325.008547 115.609669 326.232699 115 327.660877 115 329.752137 115 331.894403 116.168533 331.894403 120.43622L331.894403 129.327233C333.220568 126.685332 335.515853 124.856323 338.984285 124.856323zM350.307692 137.813986C350.307692 129.480972 355.189239 123.925629 362.458498 123.925629 369.674697 123.925629 374.025641 128.946804 374.025641 136.799067L374.025641 137.279818C374.025641 138.615237 373.548098 139.363072 372.115471 139.363072L356.940228 139.363072C356.993289 139.630155 356.993289 140.004073 357.046349 140.271156 357.523891 143.796662 359.911604 145.719666 363.095222 145.719666 366.172718 145.719666 367.976768 144.223996 368.984914 142.033909 369.568577 141.980493 372.911375 142.35441 372.911375 145.238915 372.911375 146.62775 372.168531 148.070003 370.576722 149.245171 368.931853 150.42034 366.331899 151.328425 362.82992 151.328425 355.295359 151.328425 350.307692 146.253833 350.307692 137.813986zM366.119658 135.209133C366.021345 131.241308 364.497498 128.761417 361.597272 128.761417 358.795359 128.761417 356.927417 131.296416 356.632479 135.209133L366.119658 135.209133zM388.846857 124.920224C391.448826 124.920224 393 126.660084 393 129.218702 393 132.340215 390.848372 133.31249 390.748296 133.261318 390.147842 132.544905 389.24716 131.982009 387.996213 131.982009 385.194093 131.982009 383.943146 134.642971 383.943146 139.709034L383.943146 147.384887C383.943146 149.789988 382.842313 150.71109 380.940874 150.71109L380.240344 150.71109C378.338905 150.71109 377.188034 149.84116 377.188034 147.384887L377.188034 125.994843C377.188034 125.738981 378.288867 125.227258 379.63989 125.227258 381.241101 125.227258 382.492048 125.943671 383.042465 127.88822 383.242616 128.604633 383.39273 129.423391 383.442767 130.293321 384.193335 126.967118 386.094774 124.920224 388.846857 124.920224z"/>
  </g>
</svg>
