<svg xmlns="http://www.w3.org/2000/svg" width="257" height="169" viewBox="0 0 257 169">
  <path fill="#FFF" d="M35.187775 27.0755127C54.0715473 27.0755127 69.3798694 42.6014496 69.3798694 61.7536633L69.3798694 81.6936C69.3798694 100.845814 54.0715473 116.371751 35.187775 116.371751 32.2217639 116.371751 29.3439588 115.988727 26.5998227 115.268788L26.5995254 117.603247C26.5995254 131.624448 15.3467606 143.017424 1.37952627 143.243882L.955454674 143.247317.955454674 66.9553859.995454674 66.9545127.995680668 61.7536633C.995680668 42.6014496 16.3040027 27.0755127 35.187775 27.0755127zM188.308019 27.0755127C207.202899 27.0755127 222.520226 42.6901814 222.520226 61.9518515L222.520226 82.0057463C222.520226 101.267416 207.202899 116.882085 188.308019 116.882085 169.413138 116.882085 154.095811 101.267416 154.095811 82.0057463L154.095811 61.9518515C154.095811 42.6901814 169.413138 27.0755127 188.308019 27.0755127zM111.73784 25.4276856C130.632721 25.4276856 145.950048 41.0423544 145.950048 60.3040245L145.950048 80.3579193C145.950048 99.6195893 130.632721 115.234258 111.73784 115.234258 92.84296 115.234258 77.525633 99.6195893 77.525633 80.3579193L77.525633 60.3040245C77.525633 41.0423544 92.84296 25.4276856 111.73784 25.4276856zM256.732433.710280374L256.732433 89.1678144C256.732433 103.419953 245.294329 115.000579 231.097046 115.230766L230.66599 115.234258 230.66599 26.7767241C230.66599 12.3806247 242.336334.710280374 256.732433.710280374zM188.308019 53.2327668C183.584299 53.2327668 179.754967 57.136434 179.754967 61.9518515L179.754967 82.0057463C179.754967 86.8211638 183.584299 90.724831 188.308019 90.724831 193.031739 90.724831 196.861071 86.8211638 196.861071 82.0057463L196.861071 61.9518515C196.861071 57.136434 193.031739 53.2327668 188.308019 53.2327668zM35.187775 53.0841257C30.4668319 53.0841257 26.6397514 56.9656099 26.6397514 61.7536633L26.6397514 81.6936C26.6397514 86.4816534 30.4668319 90.3631376 35.187775 90.3631376 39.9087181 90.3631376 43.7357986 86.4816534 43.7357986 81.6936L43.7357986 61.7536633C43.7357986 56.9656099 39.9087181 53.0841257 35.187775 53.0841257zM111.73784 51.5849398C107.01412 51.5849398 103.184789 55.4886069 103.184789 60.3040245L103.184789 80.3579193C103.184789 85.1733368 107.01412 89.077004 111.73784 89.077004 116.46156 89.077004 120.290892 85.1733368 120.290892 80.3579193L120.290892 60.3040245C120.290892 55.4886069 116.46156 51.5849398 111.73784 51.5849398zM61.5483352 158.277167C56.2036739 158.277167 53.2408726 155.48832 53.2408726 149.512218L53.2408726 135.966389 51.9047072 135.966389C49.9295063 135.966389 49 134.941914 49 133.177541L49 132.494558C49 130.844016 49.8714122 129.762626 51.8466131 129.762626L53.2408726 129.762626 53.2408726 126.233881C53.2408726 123.672695 54.5189437 122.53439 56.7265212 122.53439L57.5398393 122.53439C59.7474168 122.53439 61.0835821 123.501949 61.0835821 126.233881L61.0835821 129.762626 65.2663605 129.762626C67.1834673 129.762626 68.1710677 130.67327 68.1710677 132.437643L68.1710677 133.120626C68.1710677 134.998829 67.1253731 135.966389 65.2663605 135.966389L60.9673938 135.966389 60.9673938 147.861676C60.9673938 150.764354 61.838806 151.788828 63.5816303 151.788828 64.9177956 151.788828 66.0796785 151.105845 66.7768083 150.138286 67.067279 150.138286 68.4615385 151.162761 68.4615385 153.32554 68.4615385 154.52076 68.0548794 155.60215 67.0091848 156.512794 65.847302 157.594184 64.0463835 158.277167 61.5483352 158.277167zM72 143.952077C72 135.278683 77.2740283 129.682945 85.3533908 129.682945 93.2644332 129.682945 98.5384615 135.278683 98.5384615 144.063992 98.5384615 152.681429 93.2644332 158.277167 85.2411774 158.277167 77.1618149 158.277167 72 152.681429 72 143.952077zM91.4615385 143.141195C91.4615385 137.834487 89.0534188 135.044362 85.326567 135.044362 81.5423789 135.044362 79.0769231 137.779778 79.0769231 143.086486 79.0769231 148.338486 81.5423789 151.128611 85.326567 151.128611 88.9960826 151.128611 91.4615385 148.338486 91.4615385 143.141195zM112.86814 169C104.344979 169 100.307692 166.294132 100.307692 161.573255 100.307692 157.94624 103.447804 155.297944 108.270119 154.204082 107.485091 153.628365 106.924357 152.707219 106.924357 151.498214 106.924357 150.116494 107.821532 148.849917 109.055147 148.274201 104.457126 147.007624 101.821675 143.495752 101.821675 138.890019 101.821675 132.729851 106.64399 128.354405 113.204581 128.354405 115.055004 128.354405 116.79328 128.757406 118.307263 129.505838L119.484805 127.260543C120.438053 125.07282 121.671669 124.266816 123.129578 124.324388 125.821102 124.38196 126.998644 127.605973 126.830424 127.893831L122.51277 132.499565C123.970679 134.226714 124.811781 136.356866 124.811781 138.832448 124.811781 144.589614 120.606273 148.619631 114.269976 148.792346L113.260654 148.792346C113.036361 149.080204 113.036361 149.540777 113.372801 149.886207 113.765315 151.037641 116.120399 151.267927 119.540878 152.361789 122.961357 153.513222 126.550057 155.585802 126.550057 160.133964 126.550057 165.372985 121.783815 169 112.86814 169zM113.604741 143.980056C116.275278 143.980056 118 142.097856 118 138.561603 118 135.082386 116.275278 133.257223 113.549105 133.257223 110.934204 133.257223 109.153846 135.082386 109.153846 138.561603 109.153846 142.097856 110.934204 143.980056 113.604741 143.980056zM113.431564 165.425722C117.443481 165.425722 119.769231 164.215967 119.769231 162.016411 119.769231 160.421733 118.141206 159.541911 115.873601 158.882045 115.117732 158.662089 114.30372 158.442133 113.489707 158.277167 110.001083 158.772067 107.384615 160.201778 107.384615 162.291356 107.384615 164.270956 109.47779 165.425722 113.431564 165.425722zM128.615385 143.293767C128.615385 134.05499 134.077439 127.895806 142.211151 127.895806 150.285493 127.895806 155.153846 133.462761 155.153846 142.168531L155.153846 142.701537C155.153846 144.182111 154.619515 145.011232 153.01652 145.011232L136.036655 145.011232C136.096025 145.307346 136.096025 145.721907 136.155395 146.018021 136.689726 149.926734 139.361384 152.05876 142.923593 152.05876 146.367062 152.05876 148.385648 150.400518 149.513681 147.972378 150.166753 147.913155 153.907073 148.327715 153.907073 151.525753 153.907073 153.065549 153.075891 154.664568 151.294786 155.967473 149.454311 157.270377 146.545173 158.277167 142.626742 158.277167 134.19618 158.277167 128.615385 152.650989 128.615385 143.293767zM146.307692 140.405778C146.197688 136.006667 144.492627 133.257223 141.247509 133.257223 138.112395 133.257223 136.02232 136.067766 135.692308 140.405778L146.307692 140.405778zM169.471412 158.277167C164.126751 158.277167 161.163949 155.48832 161.163949 149.512218L161.163949 135.966389 159.827784 135.966389C157.852583 135.966389 156.923077 134.941914 156.923077 133.177541L156.923077 132.494558C156.923077 130.844016 157.794489 129.762626 159.76969 129.762626L161.163949 129.762626 161.163949 126.233881C161.163949 123.672695 162.442021 122.53439 164.649598 122.53439L165.462916 122.53439C167.670494 122.53439 169.006659 123.501949 169.006659 126.233881L169.006659 129.762626 173.189437 129.762626C175.106544 129.762626 176.094145 130.67327 176.094145 132.437643L176.094145 133.120626C176.094145 134.998829 175.04845 135.966389 173.189437 135.966389L168.890471 135.966389 168.890471 147.861676C168.890471 150.764354 169.761883 151.788828 171.504707 151.788828 172.840873 151.788828 174.002755 151.105845 174.699885 150.138286 174.990356 150.138286 176.384615 151.162761 176.384615 153.32554 176.384615 154.52076 175.977956 155.60215 174.932262 156.512794 173.770379 157.594184 171.96946 158.277167 169.471412 158.277167zM195.560794 128.927663C202.124069 128.927663 204.692308 133.828213 204.692308 139.911654L204.692308 153.655725C204.692308 156.303148 203.379653 157.317055 201.325062 157.317055L200.411911 157.317055C198.243176 157.317055 196.930521 156.359476 196.930521 153.655725L196.930521 140.531264C196.930521 137.376887 195.503722 135.349073 192.707196 135.349073 189.91067 135.349073 187.913151 137.151574 187.627792 140.193295L187.627792 153.655725C187.627792 156.303148 186.372208 157.317055 184.260546 157.317055L183.404467 157.317055C181.235732 157.317055 179.923077 156.359476 179.923077 153.655725L179.923077 118.957579C179.923077 118.675938 181.292804 118 182.890819 118 185.230769 118 187.627792 119.295548 187.627792 124.027113L187.627792 133.884541C189.111663 130.955477 191.679901 128.927663 195.560794 128.927663zM208.230769 143.293767C208.230769 134.05499 213.692824 127.895806 221.826536 127.895806 229.900878 127.895806 234.769231 133.462761 234.769231 142.168531L234.769231 142.701537C234.769231 144.182111 234.234899 145.011232 232.631905 145.011232L215.652039 145.011232C215.711409 145.307346 215.711409 145.721907 215.77078 146.018021 216.305111 149.926734 218.976768 152.05876 222.538978 152.05876 225.982447 152.05876 228.001033 150.400518 229.129066 147.972378 229.782137 147.913155 233.522457 148.327715 233.522457 151.525753 233.522457 153.065549 232.691275 154.664568 230.91017 155.967473 229.069695 157.270377 226.160558 158.277167 222.242127 158.277167 213.811564 158.277167 208.230769 152.650989 208.230769 143.293767zM225.923077 140.405778C225.813073 136.006667 224.108011 133.257223 220.862894 133.257223 217.72778 133.257223 215.637704 136.067766 215.307692 140.405778L225.923077 140.405778zM251.35297 128.998509C254.264362 128.998509 256 130.927484 256 133.764213 256 137.225021 253.592502 138.302978 253.480526 138.246243 252.808666 137.451959 251.800876 136.827879 250.401168 136.827879 247.265823 136.827879 245.866115 139.778077 245.866115 145.394799L245.866115 153.904984C245.866115 156.571509 244.634372 157.592731 242.506816 157.592731L241.72298 157.592731C239.595424 157.592731 238.307692 156.628243 238.307692 153.904984L238.307692 130.189935C238.307692 129.906262 239.539435 129.338916 241.05112 129.338916 242.842746 129.338916 244.242454 130.1332 244.858325 132.289114 245.082278 133.083398 245.250243 133.991151 245.306232 134.955638 246.146056 131.267892 248.273612 128.998509 251.35297 128.998509z"/>
</svg>
