<svg xmlns="http://www.w3.org/2000/svg" width="442" height="162" viewBox="0 0 442 162">
  <path fill="#6A7287" fill-rule="evenodd" d="M53.5254608,30.7933884 C79.4436786,30.7933884 100.454545,51.8042553 100.454545,77.7224731 L100.454545,115.070915 C100.454545,140.989133 79.4436786,162 53.5254608,162 L46.9290847,162 C21.0108669,162 3.17406624e-15,140.989133 0,115.070915 L0,77.7224731 C-3.17406624e-15,51.8042553 21.0108669,30.7933884 46.9290847,30.7933884 L53.5254608,30.7933884 Z M281.22243,30.7933884 C307.140648,30.7933884 328.151515,51.8042553 328.151515,77.7224731 L328.151515,115.070915 C328.151515,140.989133 307.140648,162 281.22243,162 L274.626054,162 C248.707837,162 227.69697,140.989133 227.69697,115.070915 L227.69697,77.7224731 C227.69697,51.8042553 248.707837,30.7933884 274.626054,30.7933884 L281.22243,30.7933884 Z M50.9119306,53.553719 C36.8653832,53.553719 25.4784066,65.005333 25.4784066,79.1316147 L25.4784066,79.1316147 L25.4774848,82.967719 L25.4484848,82.968299 L25.4484848,139.239669 L25.7876207,139.236715 C36.1660689,139.055778 44.5236278,130.586158 44.5236278,120.164526 L44.5236278,120.164526 L44.5234491,118.603174 C46.5647737,119.134253 48.7055421,119.4168 50.9119306,119.4168 C64.958478,119.4168 76.3454545,107.965186 76.3454545,93.8389047 L76.3454545,93.8389047 L76.3454545,79.1316147 C76.3454545,65.005333 64.958478,53.553719 50.9119306,53.553719 Z M167.373946,0 C193.292163,2.34432799e-15 214.30303,21.0108669 214.30303,46.9290847 L214.30303,84.2775269 C214.30303,110.195745 193.292163,131.206612 167.373946,131.206612 L160.77757,131.206612 C134.859352,131.206612 113.848485,110.195745 113.848485,84.2775269 L113.848485,46.9290847 C113.848485,21.0108669 134.859352,1.18665267e-14 160.77757,0 L167.373946,0 Z M395.070915,0 C420.989133,-4.76109937e-15 442,21.0108669 442,46.9290847 L442,84.2775269 C442,110.195745 420.989133,131.206612 395.070915,131.206612 L388.474539,131.206612 C362.556321,131.206612 341.545455,110.195745 341.545455,84.2775269 L341.545455,46.9290847 C341.545455,21.0108669 362.556321,4.76109937e-15 388.474539,0 L395.070915,0 Z M277.254545,62.9256198 C263.340283,62.9256198 252.0342,74.1050783 251.80947,87.9813228 L251.806061,88.4026318 L251.806061,103.051914 C251.806061,117.122479 263.199735,128.528926 277.254545,128.528926 C291.168807,128.528926 302.474891,117.349467 302.699621,103.473223 L302.70303,103.051914 L302.70303,88.4026318 C302.70303,74.3320666 291.309356,62.9256198 277.254545,62.9256198 Z M277.254545,82.0333788 C280.691863,82.0333788 283.492508,84.762355 283.612651,88.1741871 L283.616667,88.4026318 L283.616667,103.051914 C283.616667,106.569555 280.768248,109.421167 277.254545,109.421167 C273.817228,109.421167 271.016583,106.69219 270.89644,103.280358 L270.892424,103.051914 L270.892424,88.4026318 C270.892424,84.8849905 273.740843,82.0333788 277.254545,82.0333788 Z M400.478788,24.0991736 C390.235179,24.0991736 381.910012,32.3129974 381.73024,42.5136906 L381.727273,42.8506887 L381.727273,108.446281 L382.064271,108.443314 C392.152869,108.265517 400.298024,100.120362 400.47582,90.031764 L400.478788,89.6947658 L400.478788,24.0991736 Z M50.9119306,72.7371407 C54.4235674,72.7371407 57.2703116,75.6000442 57.2703116,79.1316147 L57.2703116,79.1316147 L57.2703116,93.8389047 C57.2703116,97.3704751 54.4235674,100.233379 50.9119306,100.233379 C47.4002937,100.233379 44.5535496,97.3704751 44.5535496,93.8389047 L44.5535496,93.8389047 L44.5535496,79.1316147 C44.5535496,75.6000442 47.4002937,72.7371407 50.9119306,72.7371407 Z M164.745455,33.4710744 C150.831193,33.4710744 139.525109,44.6505329 139.300379,58.5267774 L139.29697,58.9480863 L139.29697,73.5973682 C139.29697,87.6679334 150.690644,99.0743802 164.745455,99.0743802 C178.659717,99.0743802 189.9658,87.8949217 190.19053,74.0186772 L190.193939,73.5973682 L190.193939,58.9480863 C190.193939,44.8775212 178.800265,33.4710744 164.745455,33.4710744 Z M164.745455,52.5788333 C168.182772,52.5788333 170.983417,55.3078096 171.10356,58.7196417 L171.107576,58.9480863 L171.107576,73.5973682 C171.107576,77.1150095 168.259157,79.9666212 164.745455,79.9666212 C161.308137,79.9666212 158.507492,77.237645 158.387349,73.8258129 L158.383333,73.5973682 L158.383333,58.9480863 C158.383333,55.430445 161.231752,52.5788333 164.745455,52.5788333 Z"/>
</svg>
